<?xml version="1.0" encoding="UTF-8"?>
<svg xmlns="http://www.w3.org/2000/svg" width="480" height="360" viewBox="0 0 480 360" fill="none" role="img" aria-label="END: Squeeze mid-back">
  <rect width="480" height="360" rx="12" fill="#16181F"/>
  <rect x="0.5" y="0.5" width="479" height="359" rx="11.5" stroke="rgba(255,255,255,0.08)" stroke-width="1"/>
  <g stroke-linecap="round" stroke-linejoin="round">
    <path d="M50.0 300.0 L430.0 300.0" stroke="#6E7485" stroke-width="1.5"/>
    <path d="M120 250 L280 140 L300 150 L140 260 Z" stroke="#9AA0AE" stroke-width="1.8" fill="none"/>
    <path d="M140.0 260.0 L140.0 300.0" stroke="#9AA0AE" stroke-width="1.6"/>
    <path d="M250.0 175.0 L250.0 300.0" stroke="#9AA0AE" stroke-width="1.6"/>
    <path d="M280.0 140.0 L300.0 150.0" stroke="#9AA0AE" stroke-width="1.8"/>
    <circle cx="295" cy="115" r="12" stroke="#F3F4F6" stroke-width="2.5"/>
    <path d="M285.0 125.0 L210.0 195.0" stroke="#F3F4F6" stroke-width="2.5"/>
    <path d="M230.0 175.0 L200.0 175.0" stroke="#F3F4F6" stroke-width="2.5"/>
    <path d="M200.0 175.0 L185.0 190.0" stroke="#F3F4F6" stroke-width="2.5"/>
    <path d="M230.0 175.0 L220.0 180.0" stroke="#F3F4F6" stroke-width="2.5"/>
    <path d="M220.0 180.0 L210.0 195.0" stroke="#F3F4F6" stroke-width="2.5"/>
    <path d="M200.0 195.0 L185.0 250.0" stroke="#F3F4F6" stroke-width="2.5"/>
    <path d="M200.0 195.0 L215.0 255.0" stroke="#F3F4F6" stroke-width="2.5"/>
    <ellipse cx="185" cy="195" rx="14" ry="10" stroke="#9AA0AE" stroke-width="2" fill="none"/>
    <ellipse cx="210" cy="200" rx="14" ry="10" stroke="#9AA0AE" stroke-width="2" fill="none"/>
    <circle cx="210" cy="180" r="5" fill="#3DDC97" stroke="none"/>
  </g>
  <text x="240.0" y="332" text-anchor="middle" font-family="DM Sans, SF Pro Text, system-ui, sans-serif" font-size="13" font-weight="700" letter-spacing="0.12em" fill="#F3F4F6">END</text>
  <text x="240.0" y="348" text-anchor="middle" font-family="DM Sans, SF Pro Text, system-ui, sans-serif" font-size="11" font-weight="450" fill="#6E7485">Squeeze mid-back</text>
</svg>
