<?xml version="1.0" encoding="UTF-8"?>
<svg xmlns="http://www.w3.org/2000/svg" width="480" height="360" viewBox="0 0 480 360" fill="none" role="img" aria-label="END: Stand tall — don&#x27;t lean">
  <rect width="480" height="360" rx="12" fill="#16181F"/>
  <rect x="0.5" y="0.5" width="479" height="359" rx="11.5" stroke="rgba(255,255,255,0.08)" stroke-width="1"/>
  <g stroke-linecap="round" stroke-linejoin="round">
    <path d="M50.0 300.0 L430.0 300.0" stroke="#6E7485" stroke-width="1.5"/>
    <circle cx="250" cy="85" r="13" stroke="#F3F4F6" stroke-width="2.5"/>
    <path d="M250.0 98.0 L250.0 175.0" stroke="#F3F4F6" stroke-width="2.5"/>
    <path d="M250.0 135.0 L185.0 175.0" stroke="#F3F4F6" stroke-width="2.5"/>
    <path d="M250.0 135.0 L315.0 175.0" stroke="#F3F4F6" stroke-width="2.5"/>
    <path d="M250.0 175.0 L225.0 240.0" stroke="#F3F4F6" stroke-width="2.5"/>
    <path d="M250.0 175.0 L275.0 240.0" stroke="#F3F4F6" stroke-width="2.5"/>
    <path d="M225.0 240.0 L222.0 300.0" stroke="#F3F4F6" stroke-width="2.5"/>
    <path d="M275.0 240.0 L278.0 300.0" stroke="#F3F4F6" stroke-width="2.5"/>
    <path d="M205.0 300.0 L235.0 300.0" stroke="#F3F4F6" stroke-width="2.5"/>
    <path d="M265.0 300.0 L295.0 300.0" stroke="#F3F4F6" stroke-width="2.5"/>
    <path d="M170.0 175.0 L330.0 175.0" stroke="#9AA0AE" stroke-width="3.2"/>
    <ellipse cx="175" cy="175" rx="18" ry="22" stroke="#9AA0AE" stroke-width="2" fill="none"/>
    <ellipse cx="325" cy="175" rx="18" ry="22" stroke="#9AA0AE" stroke-width="2" fill="none"/>
    <path d="M370.0 230.0 L370.0 155.0" stroke="#FF5A1F" stroke-width="2.2"/>
    <path d="M364.0 150.0 L370.0 155.0 L364.0 160.0" stroke="#FF5A1F" stroke-width="2.2" fill="none"/>
    <circle cx="250" cy="175" r="5" fill="#3DDC97" stroke="none"/>
  </g>
  <text x="240.0" y="332" text-anchor="middle" font-family="DM Sans, SF Pro Text, system-ui, sans-serif" font-size="13" font-weight="700" letter-spacing="0.12em" fill="#F3F4F6">END</text>
  <text x="240.0" y="348" text-anchor="middle" font-family="DM Sans, SF Pro Text, system-ui, sans-serif" font-size="11" font-weight="450" fill="#6E7485">Stand tall — don&#x27;t lean</text>
</svg>
