<?xml version="1.0" encoding="UTF-8"?>
<svg xmlns="http://www.w3.org/2000/svg" width="480" height="360" viewBox="0 0 480 360" fill="none" role="img" aria-label="START: Upper back on bench">
  <rect width="480" height="360" rx="12" fill="#16181F"/>
  <rect x="0.5" y="0.5" width="479" height="359" rx="11.5" stroke="rgba(255,255,255,0.08)" stroke-width="1"/>
  <g stroke-linecap="round" stroke-linejoin="round">
    <path d="M50.0 300.0 L430.0 300.0" stroke="#6E7485" stroke-width="1.5"/>
    <rect x="70" y="200" width="120" height="18" rx="3" stroke="#9AA0AE" stroke-width="1.8" fill="none"/>
    <path d="M85.0 218.0 L85.0 300.0" stroke="#9AA0AE" stroke-width="1.6"/>
    <path d="M175.0 218.0 L175.0 300.0" stroke="#9AA0AE" stroke-width="1.6"/>
    <circle cx="155" cy="175" r="12" stroke="#F3F4F6" stroke-width="2.5"/>
    <path d="M155.0 187.0 L200.0 200.0" stroke="#F3F4F6" stroke-width="2.5"/>
    <path d="M200.0 200.0 L310.0 270.0" stroke="#F3F4F6" stroke-width="2.5"/>
    <path d="M310.0 270.0 L360.0 300.0" stroke="#F3F4F6" stroke-width="2.5"/>
    <path d="M360.0 300.0 L400.0 300.0" stroke="#F3F4F6" stroke-width="2.5"/>
    <path d="M280.0 255.0 L310.0 240.0" stroke="#F3F4F6" stroke-width="2.5"/>
    <path d="M310.0 240.0 L340.0 255.0" stroke="#F3F4F6" stroke-width="2.5"/>
    <path d="M385.0 300.0 L415.0 300.0" stroke="#F3F4F6" stroke-width="2.4"/>
    <path d="M250.0 255.0 L370.0 255.0" stroke="#9AA0AE" stroke-width="3.0"/>
    <ellipse cx="250" cy="255" rx="12" ry="16" stroke="#9AA0AE" stroke-width="2" fill="none"/>
    <ellipse cx="370" cy="255" rx="12" ry="16" stroke="#9AA0AE" stroke-width="2" fill="none"/>

  </g>
  <text x="240.0" y="332" text-anchor="middle" font-family="DM Sans, SF Pro Text, system-ui, sans-serif" font-size="13" font-weight="700" letter-spacing="0.12em" fill="#F3F4F6">START</text>
  <text x="240.0" y="348" text-anchor="middle" font-family="DM Sans, SF Pro Text, system-ui, sans-serif" font-size="11" font-weight="450" fill="#6E7485">Upper back on bench</text>
</svg>
